<svg width="35" height="26" viewBox="0 0 35 26" fill="none" xmlns="http://www.w3.org/2000/svg">
<g clip-path="url(#clip0_87:1485)">
<path d="M2.38636 26H7.95455V12.6093L0 6.70165V23.6369C0 24.9425 1.0679 26 2.38636 26Z" fill="#4285F4"/>
<path d="M27.0454 26H32.6136C33.9321 26 35 24.9425 35 23.6369V6.70165L27.0454 12.6093V26Z" fill="#34A853"/>
<path d="M27.0454 2.36937V12.6093L35 6.70165V3.5509C35 0.630549 31.6332 -1.03738 29.2727 0.715225L27.0454 2.36937Z" fill="#FBBC04"/>
<path d="M7.95453 12.6093V2.36937L17.5 9.45856L27.0454 2.36937V12.6093L17.5 19.6985L7.95453 12.6093Z" fill="#EA4335"/>
<path d="M0 3.5508V6.70155L7.95455 12.6092V2.36926L5.72727 0.715119C3.36676 -1.03749 0 0.630443 0 3.5508Z" fill="#C5221F"/>
</g>
<defs>
<clipPath id="clip0_87:1485">
<rect width="35" height="26" fill="white"/>
</clipPath>
</defs>
</svg>
