<svg width="134" height="48" viewBox="0 0 134 48" fill="none" xmlns="http://www.w3.org/2000/svg">
<rect x="0.5" y="0.5" width="133" height="47" rx="7.5" fill="white" stroke="#DADCE0"/>
<path d="M17.888 23.568H26.312C26.36 23.76 26.4 23.992 26.432 24.264C26.464 24.536 26.48 24.808 26.48 25.08C26.48 26.184 26.312 27.224 25.976 28.2C25.64 29.176 25.112 30.048 24.392 30.816C23.624 31.632 22.704 32.264 21.632 32.712C20.56 33.16 19.336 33.384 17.96 33.384C16.712 33.384 15.536 33.16 14.432 32.712C13.328 32.264 12.368 31.64 11.552 30.84C10.736 30.04 10.088 29.096 9.608 28.008C9.128 26.904 8.888 25.704 8.888 24.408C8.888 23.112 9.128 21.92 9.608 20.832C10.088 19.728 10.736 18.776 11.552 17.976C12.368 17.176 13.328 16.552 14.432 16.104C15.536 15.656 16.712 15.432 17.96 15.432C19.352 15.432 20.592 15.672 21.68 16.152C22.784 16.632 23.728 17.296 24.512 18.144L22.28 20.328C21.72 19.736 21.096 19.288 20.408 18.984C19.72 18.664 18.896 18.504 17.936 18.504C17.152 18.504 16.408 18.648 15.704 18.936C15 19.208 14.384 19.6 13.856 20.112C13.328 20.624 12.904 21.248 12.584 21.984C12.28 22.704 12.128 23.512 12.128 24.408C12.128 25.304 12.28 26.12 12.584 26.856C12.904 27.576 13.328 28.192 13.856 28.704C14.4 29.216 15.024 29.616 15.728 29.904C16.432 30.176 17.184 30.312 17.984 30.312C18.896 30.312 19.664 30.184 20.288 29.928C20.928 29.656 21.472 29.312 21.92 28.896C22.24 28.608 22.512 28.248 22.736 27.816C22.976 27.368 23.16 26.872 23.288 26.328H17.888V23.568Z" fill="#757575"/>
<path d="M44.336 28.416C44.336 29.92 43.784 31.128 42.68 32.04C41.56 32.936 40.2 33.384 38.6 33.384C37.176 33.384 35.92 32.968 34.832 32.136C33.744 31.304 32.992 30.168 32.576 28.728L34.688 27.864C34.832 28.376 35.032 28.84 35.288 29.256C35.544 29.672 35.84 30.032 36.176 30.336C36.528 30.624 36.912 30.856 37.328 31.032C37.744 31.192 38.184 31.272 38.648 31.272C39.656 31.272 40.48 31.016 41.12 30.504C41.76 29.976 42.08 29.28 42.08 28.416C42.08 27.696 41.816 27.08 41.288 26.568C40.792 26.072 39.864 25.592 38.504 25.128C37.128 24.632 36.272 24.296 35.936 24.12C34.112 23.192 33.2 21.824 33.2 20.016C33.2 18.752 33.704 17.672 34.712 16.776C35.736 15.88 36.992 15.432 38.48 15.432C39.792 15.432 40.928 15.768 41.888 16.44C42.848 17.096 43.488 17.92 43.808 18.912L41.744 19.776C41.552 19.136 41.168 18.608 40.592 18.192C40.032 17.76 39.344 17.544 38.528 17.544C37.664 17.544 36.936 17.784 36.344 18.264C35.752 18.712 35.456 19.296 35.456 20.016C35.456 20.608 35.688 21.12 36.152 21.552C36.664 21.984 37.776 22.496 39.488 23.088C41.232 23.68 42.472 24.408 43.208 25.272C43.96 26.12 44.336 27.168 44.336 28.416ZM56.5781 33H54.4661V31.368H54.3701C54.0341 31.944 53.5141 32.424 52.8101 32.808C52.1221 33.192 51.4021 33.384 50.6501 33.384C49.2101 33.384 48.0981 32.976 47.3141 32.16C46.5461 31.328 46.1621 30.152 46.1621 28.632V21.24H48.3701V28.488C48.4181 30.408 49.3861 31.368 51.2741 31.368C52.1541 31.368 52.8901 31.016 53.4821 30.312C54.0741 29.592 54.3701 28.736 54.3701 27.744V21.24H56.5781V33ZM62.1219 17.184C62.1219 17.616 61.9699 17.984 61.6659 18.288C61.3619 18.592 60.9939 18.744 60.5619 18.744C60.1299 18.744 59.7619 18.592 59.4579 18.288C59.1539 17.984 59.0019 17.616 59.0019 17.184C59.0019 16.752 59.1539 16.384 59.4579 16.08C59.7619 15.776 60.1299 15.624 60.5619 15.624C60.9939 15.624 61.3619 15.776 61.6659 16.08C61.9699 16.384 62.1219 16.752 62.1219 17.184ZM61.6659 21.24V33H59.4579V21.24H61.6659ZM69.0781 33.192C68.1181 33.192 67.3181 32.896 66.6781 32.304C66.0541 31.712 65.7341 30.888 65.7181 29.832V23.256H63.6541V21.24H65.7181V17.64H67.9261V21.24H70.8061V23.256H67.9261V29.112C67.9261 29.896 68.0781 30.432 68.3821 30.72C68.6861 30.992 69.0301 31.128 69.4141 31.128C69.5901 31.128 69.7581 31.112 69.9181 31.08C70.0941 31.032 70.2541 30.976 70.3981 30.912L71.0941 32.88C70.5181 33.088 69.8461 33.192 69.0781 33.192ZM78.0693 33.384C76.3413 33.384 74.9173 32.792 73.7973 31.608C72.6773 30.424 72.1173 28.928 72.1173 27.12C72.1173 25.328 72.6613 23.84 73.7493 22.656C74.8373 21.456 76.2293 20.856 77.9253 20.856C79.6693 20.856 81.0533 21.424 82.0773 22.56C83.1173 23.68 83.6373 25.256 83.6373 27.288L83.6133 27.528H74.3733C74.4053 28.68 74.7893 29.608 75.5253 30.312C76.2613 31.016 77.1413 31.368 78.1653 31.368C79.5733 31.368 80.6773 30.664 81.4773 29.256L83.4453 30.216C82.9173 31.208 82.1813 31.984 81.2373 32.544C80.3093 33.104 79.2533 33.384 78.0693 33.384ZM74.5413 25.704H81.2853C81.2213 24.888 80.8853 24.216 80.2773 23.688C79.6853 23.144 78.8853 22.872 77.8773 22.872C77.0453 22.872 76.3253 23.128 75.7173 23.64C75.1253 24.152 74.7333 24.84 74.5413 25.704Z" fill="#757575"/>
<circle cx="110" cy="24" r="16" fill="#C4C4C4"/>
<path d="M110 16C111.061 16 112.078 16.4214 112.828 17.1716C113.579 17.9217 114 18.9391 114 20C114 21.0609 113.579 22.0783 112.828 22.8284C112.078 23.5786 111.061 24 110 24C108.939 24 107.922 23.5786 107.172 22.8284C106.421 22.0783 106 21.0609 106 20C106 18.9391 106.421 17.9217 107.172 17.1716C107.922 16.4214 108.939 16 110 16ZM110 26C114.42 26 118 27.79 118 30V32H102V30C102 27.79 105.58 26 110 26Z" fill="white"/>
</svg>
